<mxfile host="app.diagrams.net" modified="2023-05-12T09:05:00.477Z" agent="Mozilla/5.0 (Windows NT 10.0; Win64; x64) AppleWebKit/537.36 (KHTML, like Gecko) Chrome/113.0.0.0 Safari/537.36" etag="xuwW1qL0GeM8v3Jlh0W7" version="21.1.8" type="device">
  <diagram name="Page-1" id="2YBvvXClWsGukQMizWep">
    <mxGraphModel dx="1313" dy="774" grid="1" gridSize="10" guides="1" tooltips="1" connect="1" arrows="1" fold="1" page="1" pageScale="1" pageWidth="850" pageHeight="1100" math="0" shadow="0">
      <root>
        <mxCell id="0" />
        <mxCell id="1" parent="0" />
        <mxCell id="aM9ryv3xv72pqoxQDRHE-1" value="Candidat" style="shape=umlLifeline;perimeter=lifelinePerimeter;whiteSpace=wrap;html=1;container=0;dropTarget=0;collapsible=0;recursiveResize=0;outlineConnect=0;portConstraint=eastwest;newEdgeStyle={&quot;edgeStyle&quot;:&quot;elbowEdgeStyle&quot;,&quot;elbow&quot;:&quot;vertical&quot;,&quot;curved&quot;:0,&quot;rounded&quot;:0};" parent="1" vertex="1">
          <mxGeometry x="40" y="40" width="100" height="320" as="geometry" />
        </mxCell>
        <mxCell id="aM9ryv3xv72pqoxQDRHE-2" value="" style="html=1;points=[];perimeter=orthogonalPerimeter;outlineConnect=0;targetShapes=umlLifeline;portConstraint=eastwest;newEdgeStyle={&quot;edgeStyle&quot;:&quot;elbowEdgeStyle&quot;,&quot;elbow&quot;:&quot;vertical&quot;,&quot;curved&quot;:0,&quot;rounded&quot;:0};" parent="aM9ryv3xv72pqoxQDRHE-1" vertex="1">
          <mxGeometry x="45" y="69" width="10" height="250" as="geometry" />
        </mxCell>
        <mxCell id="aM9ryv3xv72pqoxQDRHE-3" value="connexion" style="html=1;verticalAlign=bottom;startArrow=oval;endArrow=block;startSize=8;edgeStyle=elbowEdgeStyle;elbow=vertical;curved=0;rounded=0;" parent="aM9ryv3xv72pqoxQDRHE-1" target="aM9ryv3xv72pqoxQDRHE-2" edge="1">
          <mxGeometry relative="1" as="geometry">
            <mxPoint x="-30" y="70" as="sourcePoint" />
          </mxGeometry>
        </mxCell>
        <mxCell id="aM9ryv3xv72pqoxQDRHE-5" value="Consultant" style="shape=umlLifeline;perimeter=lifelinePerimeter;whiteSpace=wrap;html=1;container=0;dropTarget=0;collapsible=0;recursiveResize=0;outlineConnect=0;portConstraint=eastwest;newEdgeStyle={&quot;edgeStyle&quot;:&quot;elbowEdgeStyle&quot;,&quot;elbow&quot;:&quot;vertical&quot;,&quot;curved&quot;:0,&quot;rounded&quot;:0};" parent="1" vertex="1">
          <mxGeometry x="640" y="40" width="100" height="320" as="geometry" />
        </mxCell>
        <mxCell id="aM9ryv3xv72pqoxQDRHE-6" value="" style="html=1;points=[];perimeter=orthogonalPerimeter;outlineConnect=0;targetShapes=umlLifeline;portConstraint=eastwest;newEdgeStyle={&quot;edgeStyle&quot;:&quot;elbowEdgeStyle&quot;,&quot;elbow&quot;:&quot;vertical&quot;,&quot;curved&quot;:0,&quot;rounded&quot;:0};" parent="aM9ryv3xv72pqoxQDRHE-5" vertex="1">
          <mxGeometry x="45" y="79" width="10" height="240" as="geometry" />
        </mxCell>
        <mxCell id="aM9ryv3xv72pqoxQDRHE-7" value="création de compte" style="html=1;verticalAlign=bottom;endArrow=block;edgeStyle=elbowEdgeStyle;elbow=vertical;curved=0;rounded=0;" parent="1" source="aM9ryv3xv72pqoxQDRHE-2" target="CrxGq-SpcUat6M0yzvBA-6" edge="1">
          <mxGeometry relative="1" as="geometry">
            <mxPoint x="195" y="130" as="sourcePoint" />
            <Array as="points">
              <mxPoint x="180" y="120" />
            </Array>
          </mxGeometry>
        </mxCell>
        <mxCell id="aM9ryv3xv72pqoxQDRHE-8" value="confirmation création compte" style="html=1;verticalAlign=bottom;endArrow=open;dashed=1;endSize=8;edgeStyle=elbowEdgeStyle;elbow=vertical;curved=0;rounded=0;" parent="1" source="CrxGq-SpcUat6M0yzvBA-6" target="aM9ryv3xv72pqoxQDRHE-2" edge="1">
          <mxGeometry relative="1" as="geometry">
            <mxPoint x="195" y="205" as="targetPoint" />
            <Array as="points">
              <mxPoint x="220" y="160" />
              <mxPoint x="190" y="280" />
            </Array>
          </mxGeometry>
        </mxCell>
        <mxCell id="aM9ryv3xv72pqoxQDRHE-10" value="vérification création compte" style="html=1;verticalAlign=bottom;endArrow=open;dashed=1;endSize=8;edgeStyle=elbowEdgeStyle;elbow=vertical;curved=0;rounded=0;" parent="1" source="CrxGq-SpcUat6M0yzvBA-6" target="aM9ryv3xv72pqoxQDRHE-6" edge="1">
          <mxGeometry relative="1" as="geometry">
            <mxPoint x="175" y="235" as="targetPoint" />
            <Array as="points">
              <mxPoint x="490" y="120" />
              <mxPoint x="730" y="180" />
              <mxPoint x="180" y="230" />
            </Array>
            <mxPoint x="490" y="120" as="sourcePoint" />
          </mxGeometry>
        </mxCell>
        <mxCell id="CrxGq-SpcUat6M0yzvBA-7" value="validation de compte" style="html=1;verticalAlign=bottom;endArrow=block;edgeStyle=elbowEdgeStyle;elbow=vertical;curved=0;rounded=0;" edge="1" parent="1" source="aM9ryv3xv72pqoxQDRHE-6">
          <mxGeometry relative="1" as="geometry">
            <mxPoint x="685" y="160" as="sourcePoint" />
            <Array as="points">
              <mxPoint x="490" y="160" />
            </Array>
            <mxPoint x="390" y="160" as="targetPoint" />
          </mxGeometry>
        </mxCell>
        <mxCell id="CrxGq-SpcUat6M0yzvBA-5" value="Application" style="shape=umlLifeline;perimeter=lifelinePerimeter;whiteSpace=wrap;html=1;container=0;dropTarget=0;collapsible=0;recursiveResize=0;outlineConnect=0;portConstraint=eastwest;newEdgeStyle={&quot;edgeStyle&quot;:&quot;elbowEdgeStyle&quot;,&quot;elbow&quot;:&quot;vertical&quot;,&quot;curved&quot;:0,&quot;rounded&quot;:0};" vertex="1" parent="1">
          <mxGeometry x="334" y="30" width="100" height="340" as="geometry" />
        </mxCell>
        <mxCell id="CrxGq-SpcUat6M0yzvBA-6" value="" style="html=1;points=[];perimeter=orthogonalPerimeter;outlineConnect=0;targetShapes=umlLifeline;portConstraint=eastwest;newEdgeStyle={&quot;edgeStyle&quot;:&quot;elbowEdgeStyle&quot;,&quot;elbow&quot;:&quot;vertical&quot;,&quot;curved&quot;:0,&quot;rounded&quot;:0};" vertex="1" parent="CrxGq-SpcUat6M0yzvBA-5">
          <mxGeometry x="45" y="80" width="10" height="250" as="geometry" />
        </mxCell>
        <mxCell id="CrxGq-SpcUat6M0yzvBA-8" value="création profil avec CV" style="html=1;verticalAlign=bottom;endArrow=block;edgeStyle=elbowEdgeStyle;elbow=vertical;curved=0;rounded=0;" edge="1" parent="1">
          <mxGeometry relative="1" as="geometry">
            <mxPoint x="95" y="210" as="sourcePoint" />
            <Array as="points">
              <mxPoint x="180" y="210" />
            </Array>
            <mxPoint x="379" y="210" as="targetPoint" />
          </mxGeometry>
        </mxCell>
        <mxCell id="CrxGq-SpcUat6M0yzvBA-9" value="création éffectuée" style="html=1;verticalAlign=bottom;endArrow=open;dashed=1;endSize=8;edgeStyle=elbowEdgeStyle;elbow=vertical;curved=0;rounded=0;" edge="1" parent="1">
          <mxGeometry relative="1" as="geometry">
            <mxPoint x="95" y="259" as="targetPoint" />
            <Array as="points">
              <mxPoint x="220" y="259" />
              <mxPoint x="190" y="379" />
            </Array>
            <mxPoint x="379" y="259" as="sourcePoint" />
          </mxGeometry>
        </mxCell>
        <mxCell id="CrxGq-SpcUat6M0yzvBA-10" value="Postule à une annonce" style="html=1;verticalAlign=bottom;endArrow=block;edgeStyle=elbowEdgeStyle;elbow=vertical;curved=0;rounded=0;" edge="1" parent="1">
          <mxGeometry relative="1" as="geometry">
            <mxPoint x="95" y="310" as="sourcePoint" />
            <Array as="points">
              <mxPoint x="180" y="310" />
            </Array>
            <mxPoint x="379" y="310" as="targetPoint" />
          </mxGeometry>
        </mxCell>
        <mxCell id="CrxGq-SpcUat6M0yzvBA-11" value="vérification création compte" style="html=1;verticalAlign=bottom;endArrow=open;dashed=1;endSize=8;edgeStyle=elbowEdgeStyle;elbow=vertical;curved=0;rounded=0;" edge="1" parent="1">
          <mxGeometry relative="1" as="geometry">
            <mxPoint x="686" y="310" as="targetPoint" />
            <Array as="points">
              <mxPoint x="491" y="310" />
              <mxPoint x="731" y="370" />
              <mxPoint x="181" y="420" />
            </Array>
            <mxPoint x="390" y="310" as="sourcePoint" />
          </mxGeometry>
        </mxCell>
        <mxCell id="CrxGq-SpcUat6M0yzvBA-12" value="validation dépôt candidature" style="html=1;verticalAlign=bottom;endArrow=block;edgeStyle=elbowEdgeStyle;elbow=vertical;curved=0;rounded=0;" edge="1" parent="1">
          <mxGeometry relative="1" as="geometry">
            <mxPoint x="685" y="340" as="sourcePoint" />
            <Array as="points">
              <mxPoint x="490" y="340" />
            </Array>
            <mxPoint x="390" y="340" as="targetPoint" />
          </mxGeometry>
        </mxCell>
        <mxCell id="CrxGq-SpcUat6M0yzvBA-13" value="" style="shape=umlLifeline;perimeter=lifelinePerimeter;whiteSpace=wrap;html=1;container=0;dropTarget=0;collapsible=0;recursiveResize=0;outlineConnect=0;portConstraint=eastwest;newEdgeStyle={&quot;edgeStyle&quot;:&quot;elbowEdgeStyle&quot;,&quot;elbow&quot;:&quot;vertical&quot;,&quot;curved&quot;:0,&quot;rounded&quot;:0};direction=west;" vertex="1" parent="1">
          <mxGeometry x="150" y="320" width="100" height="100" as="geometry" />
        </mxCell>
        <mxCell id="CrxGq-SpcUat6M0yzvBA-16" value="" style="rounded=0;whiteSpace=wrap;html=1;direction=south;" vertex="1" parent="1">
          <mxGeometry x="195" y="330" width="10" height="40" as="geometry" />
        </mxCell>
        <mxCell id="CrxGq-SpcUat6M0yzvBA-17" value="Recruteur" style="text;html=1;strokeColor=none;fillColor=none;align=center;verticalAlign=middle;whiteSpace=wrap;rounded=0;" vertex="1" parent="1">
          <mxGeometry x="170" y="385" width="60" height="30" as="geometry" />
        </mxCell>
        <mxCell id="CrxGq-SpcUat6M0yzvBA-20" value="envoi CV" style="html=1;verticalAlign=bottom;endArrow=open;dashed=1;endSize=8;edgeStyle=elbowEdgeStyle;elbow=vertical;curved=0;rounded=0;" edge="1" parent="1">
          <mxGeometry relative="1" as="geometry">
            <mxPoint x="205" y="340" as="targetPoint" />
            <Array as="points">
              <mxPoint x="216" y="340" />
              <mxPoint x="186" y="460" />
            </Array>
            <mxPoint x="375" y="340" as="sourcePoint" />
          </mxGeometry>
        </mxCell>
        <mxCell id="CrxGq-SpcUat6M0yzvBA-21" value="Recruteur" style="shape=umlLifeline;perimeter=lifelinePerimeter;whiteSpace=wrap;html=1;container=0;dropTarget=0;collapsible=0;recursiveResize=0;outlineConnect=0;portConstraint=eastwest;newEdgeStyle={&quot;edgeStyle&quot;:&quot;elbowEdgeStyle&quot;,&quot;elbow&quot;:&quot;vertical&quot;,&quot;curved&quot;:0,&quot;rounded&quot;:0};" vertex="1" parent="1">
          <mxGeometry x="40" y="500" width="100" height="320" as="geometry" />
        </mxCell>
        <mxCell id="CrxGq-SpcUat6M0yzvBA-22" value="" style="html=1;points=[];perimeter=orthogonalPerimeter;outlineConnect=0;targetShapes=umlLifeline;portConstraint=eastwest;newEdgeStyle={&quot;edgeStyle&quot;:&quot;elbowEdgeStyle&quot;,&quot;elbow&quot;:&quot;vertical&quot;,&quot;curved&quot;:0,&quot;rounded&quot;:0};" vertex="1" parent="CrxGq-SpcUat6M0yzvBA-21">
          <mxGeometry x="45" y="69" width="10" height="250" as="geometry" />
        </mxCell>
        <mxCell id="CrxGq-SpcUat6M0yzvBA-23" value="connexion" style="html=1;verticalAlign=bottom;startArrow=oval;endArrow=block;startSize=8;edgeStyle=elbowEdgeStyle;elbow=vertical;curved=0;rounded=0;" edge="1" parent="CrxGq-SpcUat6M0yzvBA-21" target="CrxGq-SpcUat6M0yzvBA-22">
          <mxGeometry relative="1" as="geometry">
            <mxPoint x="-30" y="70" as="sourcePoint" />
          </mxGeometry>
        </mxCell>
        <mxCell id="CrxGq-SpcUat6M0yzvBA-24" value="Consultant" style="shape=umlLifeline;perimeter=lifelinePerimeter;whiteSpace=wrap;html=1;container=0;dropTarget=0;collapsible=0;recursiveResize=0;outlineConnect=0;portConstraint=eastwest;newEdgeStyle={&quot;edgeStyle&quot;:&quot;elbowEdgeStyle&quot;,&quot;elbow&quot;:&quot;vertical&quot;,&quot;curved&quot;:0,&quot;rounded&quot;:0};" vertex="1" parent="1">
          <mxGeometry x="675" y="500" width="100" height="320" as="geometry" />
        </mxCell>
        <mxCell id="CrxGq-SpcUat6M0yzvBA-25" value="" style="html=1;points=[];perimeter=orthogonalPerimeter;outlineConnect=0;targetShapes=umlLifeline;portConstraint=eastwest;newEdgeStyle={&quot;edgeStyle&quot;:&quot;elbowEdgeStyle&quot;,&quot;elbow&quot;:&quot;vertical&quot;,&quot;curved&quot;:0,&quot;rounded&quot;:0};" vertex="1" parent="CrxGq-SpcUat6M0yzvBA-24">
          <mxGeometry x="10" y="79" width="10" height="240" as="geometry" />
        </mxCell>
        <mxCell id="CrxGq-SpcUat6M0yzvBA-26" value="création de compte" style="html=1;verticalAlign=bottom;endArrow=block;edgeStyle=elbowEdgeStyle;elbow=vertical;curved=0;rounded=0;" edge="1" parent="1" source="CrxGq-SpcUat6M0yzvBA-22" target="CrxGq-SpcUat6M0yzvBA-31">
          <mxGeometry relative="1" as="geometry">
            <mxPoint x="195" y="590" as="sourcePoint" />
            <Array as="points">
              <mxPoint x="180" y="580" />
            </Array>
          </mxGeometry>
        </mxCell>
        <mxCell id="CrxGq-SpcUat6M0yzvBA-27" value="confirmation création compte" style="html=1;verticalAlign=bottom;endArrow=open;dashed=1;endSize=8;edgeStyle=elbowEdgeStyle;elbow=vertical;curved=0;rounded=0;" edge="1" parent="1" source="CrxGq-SpcUat6M0yzvBA-31" target="CrxGq-SpcUat6M0yzvBA-22">
          <mxGeometry relative="1" as="geometry">
            <mxPoint x="195" y="665" as="targetPoint" />
            <Array as="points">
              <mxPoint x="220" y="620" />
              <mxPoint x="190" y="740" />
            </Array>
          </mxGeometry>
        </mxCell>
        <mxCell id="CrxGq-SpcUat6M0yzvBA-28" value="vérification création compte" style="html=1;verticalAlign=bottom;endArrow=open;dashed=1;endSize=8;edgeStyle=elbowEdgeStyle;elbow=vertical;curved=0;rounded=0;" edge="1" parent="1" source="CrxGq-SpcUat6M0yzvBA-31" target="CrxGq-SpcUat6M0yzvBA-25">
          <mxGeometry relative="1" as="geometry">
            <mxPoint x="175" y="695" as="targetPoint" />
            <Array as="points">
              <mxPoint x="490" y="580" />
              <mxPoint x="730" y="640" />
              <mxPoint x="180" y="690" />
            </Array>
            <mxPoint x="490" y="580" as="sourcePoint" />
          </mxGeometry>
        </mxCell>
        <mxCell id="CrxGq-SpcUat6M0yzvBA-29" value="validation de compte" style="html=1;verticalAlign=bottom;endArrow=block;edgeStyle=elbowEdgeStyle;elbow=vertical;curved=0;rounded=0;" edge="1" parent="1" source="CrxGq-SpcUat6M0yzvBA-25">
          <mxGeometry relative="1" as="geometry">
            <mxPoint x="685" y="620" as="sourcePoint" />
            <Array as="points">
              <mxPoint x="490" y="620" />
            </Array>
            <mxPoint x="390" y="620" as="targetPoint" />
          </mxGeometry>
        </mxCell>
        <mxCell id="CrxGq-SpcUat6M0yzvBA-30" value="Application" style="shape=umlLifeline;perimeter=lifelinePerimeter;whiteSpace=wrap;html=1;container=0;dropTarget=0;collapsible=0;recursiveResize=0;outlineConnect=0;portConstraint=eastwest;newEdgeStyle={&quot;edgeStyle&quot;:&quot;elbowEdgeStyle&quot;,&quot;elbow&quot;:&quot;vertical&quot;,&quot;curved&quot;:0,&quot;rounded&quot;:0};" vertex="1" parent="1">
          <mxGeometry x="334" y="490" width="100" height="340" as="geometry" />
        </mxCell>
        <mxCell id="CrxGq-SpcUat6M0yzvBA-31" value="" style="html=1;points=[];perimeter=orthogonalPerimeter;outlineConnect=0;targetShapes=umlLifeline;portConstraint=eastwest;newEdgeStyle={&quot;edgeStyle&quot;:&quot;elbowEdgeStyle&quot;,&quot;elbow&quot;:&quot;vertical&quot;,&quot;curved&quot;:0,&quot;rounded&quot;:0};" vertex="1" parent="CrxGq-SpcUat6M0yzvBA-30">
          <mxGeometry x="45" y="80" width="10" height="250" as="geometry" />
        </mxCell>
        <mxCell id="CrxGq-SpcUat6M0yzvBA-32" value="création du profil" style="html=1;verticalAlign=bottom;endArrow=block;edgeStyle=elbowEdgeStyle;elbow=vertical;curved=0;rounded=0;" edge="1" parent="1">
          <mxGeometry relative="1" as="geometry">
            <mxPoint x="95" y="670" as="sourcePoint" />
            <Array as="points">
              <mxPoint x="180" y="670" />
            </Array>
            <mxPoint x="379" y="670" as="targetPoint" />
          </mxGeometry>
        </mxCell>
        <mxCell id="CrxGq-SpcUat6M0yzvBA-33" value="création éffectuée" style="html=1;verticalAlign=bottom;endArrow=open;dashed=1;endSize=8;edgeStyle=elbowEdgeStyle;elbow=vertical;curved=0;rounded=0;" edge="1" parent="1">
          <mxGeometry relative="1" as="geometry">
            <mxPoint x="95" y="719" as="targetPoint" />
            <Array as="points">
              <mxPoint x="220" y="719" />
              <mxPoint x="190" y="839" />
            </Array>
            <mxPoint x="379" y="719" as="sourcePoint" />
          </mxGeometry>
        </mxCell>
        <mxCell id="CrxGq-SpcUat6M0yzvBA-34" value="dépôt annonce" style="html=1;verticalAlign=bottom;endArrow=block;edgeStyle=elbowEdgeStyle;elbow=vertical;curved=0;rounded=0;" edge="1" parent="1">
          <mxGeometry relative="1" as="geometry">
            <mxPoint x="95" y="770" as="sourcePoint" />
            <Array as="points">
              <mxPoint x="180" y="770" />
            </Array>
            <mxPoint x="379" y="770" as="targetPoint" />
          </mxGeometry>
        </mxCell>
        <mxCell id="CrxGq-SpcUat6M0yzvBA-35" value="vérification annonce" style="html=1;verticalAlign=bottom;endArrow=open;dashed=1;endSize=8;edgeStyle=elbowEdgeStyle;elbow=vertical;curved=0;rounded=0;" edge="1" parent="1">
          <mxGeometry relative="1" as="geometry">
            <mxPoint x="686" y="770" as="targetPoint" />
            <Array as="points">
              <mxPoint x="491" y="770" />
              <mxPoint x="731" y="830" />
              <mxPoint x="181" y="880" />
            </Array>
            <mxPoint x="390" y="770" as="sourcePoint" />
          </mxGeometry>
        </mxCell>
        <mxCell id="CrxGq-SpcUat6M0yzvBA-36" value="validation annonce" style="html=1;verticalAlign=bottom;endArrow=block;edgeStyle=elbowEdgeStyle;elbow=vertical;curved=0;rounded=0;" edge="1" parent="1">
          <mxGeometry relative="1" as="geometry">
            <mxPoint x="685" y="800" as="sourcePoint" />
            <Array as="points">
              <mxPoint x="490" y="800" />
            </Array>
            <mxPoint x="390" y="800" as="targetPoint" />
          </mxGeometry>
        </mxCell>
        <mxCell id="CrxGq-SpcUat6M0yzvBA-40" value="envoi liste des candidats" style="html=1;verticalAlign=bottom;endArrow=open;dashed=1;endSize=8;edgeStyle=elbowEdgeStyle;elbow=vertical;curved=0;rounded=0;" edge="1" parent="1" target="CrxGq-SpcUat6M0yzvBA-22">
          <mxGeometry relative="1" as="geometry">
            <mxPoint x="205" y="800" as="targetPoint" />
            <Array as="points">
              <mxPoint x="216" y="800" />
              <mxPoint x="186" y="920" />
            </Array>
            <mxPoint x="375" y="800" as="sourcePoint" />
          </mxGeometry>
        </mxCell>
      </root>
    </mxGraphModel>
  </diagram>
</mxfile>
